<?xml version="1.0" encoding="utf-8" standalone="no"?>
<!DOCTYPE svg PUBLIC "-//W3C//DTD SVG 1.1//EN"
  "http://www.w3.org/Graphics/SVG/1.1/DTD/svg11.dtd">
<svg xmlns:xlink="http://www.w3.org/1999/xlink" width="615.34375pt" height="392.51625pt" viewBox="0 0 615.34375 392.51625" xmlns="http://www.w3.org/2000/svg" version="1.1">
 <metadata>
  <rdf:RDF xmlns:dc="http://purl.org/dc/elements/1.1/" xmlns:cc="http://creativecommons.org/ns#" xmlns:rdf="http://www.w3.org/1999/02/22-rdf-syntax-ns#">
   <cc:Work>
    <dc:type rdf:resource="http://purl.org/dc/dcmitype/StillImage"/>
    <dc:date>2024-12-02T10:19:51.489522</dc:date>
    <dc:format>image/svg+xml</dc:format>
    <dc:creator>
     <cc:Agent>
      <dc:title>Matplotlib v3.9.0, https://matplotlib.org/</dc:title>
     </cc:Agent>
    </dc:creator>
   </cc:Work>
  </rdf:RDF>
 </metadata>
 <defs>
  <style type="text/css">*{stroke-linejoin: round; stroke-linecap: butt}</style>
 </defs>
 <g id="figure_1">
  <g id="patch_1">
   <path d="M 0 392.51625 
L 615.34375 392.51625 
L 615.34375 0 
L 0 0 
z
" style="fill: #ffffff"/>
  </g>
  <g id="axes_1">
   <g id="patch_2">
    <path d="M 50.14375 354.96 
L 608.14375 354.96 
L 608.14375 22.32 
L 50.14375 22.32 
z
" style="fill: #ffffff"/>
   </g>
   <g id="matplotlib.axis_1">
    <g id="xtick_1">
     <g id="line2d_1">
      <path d="M 75.507386 354.96 
L 75.507386 22.32 
" clip-path="url(#pe7803fe1db)" style="fill: none; stroke: #b0b0b0; stroke-width: 0.8; stroke-linecap: square"/>
     </g>
     <g id="line2d_2">
      <defs>
       <path id="m12cc87d0a2" d="M 0 0 
L 0 3.5 
" style="stroke: #000000; stroke-width: 0.8"/>
      </defs>
      <g>
       <use xlink:href="#m12cc87d0a2" x="75.507386" y="354.96" style="stroke: #000000; stroke-width: 0.8"/>
      </g>
     </g>
     <g id="text_1">
      <!-- −6 -->
      <g transform="translate(68.136293 369.558437) scale(0.1 -0.1)">
       <defs>
        <path id="DejaVuSans-2212" d="M 678 2272 
L 4684 2272 
L 4684 1741 
L 678 1741 
L 678 2272 
z
" transform="scale(0.015625)"/>
        <path id="DejaVuSans-36" d="M 2113 2584 
Q 1688 2584 1439 2293 
Q 1191 2003 1191 1497 
Q 1191 994 1439 701 
Q 1688 409 2113 409 
Q 2538 409 2786 701 
Q 3034 994 3034 1497 
Q 3034 2003 2786 2293 
Q 2538 2584 2113 2584 
z
M 3366 4563 
L 3366 3988 
Q 3128 4100 2886 4159 
Q 2644 4219 2406 4219 
Q 1781 4219 1451 3797 
Q 1122 3375 1075 2522 
Q 1259 2794 1537 2939 
Q 1816 3084 2150 3084 
Q 2853 3084 3261 2657 
Q 3669 2231 3669 1497 
Q 3669 778 3244 343 
Q 2819 -91 2113 -91 
Q 1303 -91 875 529 
Q 447 1150 447 2328 
Q 447 3434 972 4092 
Q 1497 4750 2381 4750 
Q 2619 4750 2861 4703 
Q 3103 4656 3366 4563 
z
" transform="scale(0.015625)"/>
       </defs>
       <use xlink:href="#DejaVuSans-2212"/>
       <use xlink:href="#DejaVuSans-36" x="83.789062"/>
      </g>
     </g>
    </g>
    <g id="xtick_2">
     <g id="line2d_3">
      <path d="M 160.052841 354.96 
L 160.052841 22.32 
" clip-path="url(#pe7803fe1db)" style="fill: none; stroke: #b0b0b0; stroke-width: 0.8; stroke-linecap: square"/>
     </g>
     <g id="line2d_4">
      <g>
       <use xlink:href="#m12cc87d0a2" x="160.052841" y="354.96" style="stroke: #000000; stroke-width: 0.8"/>
      </g>
     </g>
     <g id="text_2">
      <!-- −4 -->
      <g transform="translate(152.681747 369.558437) scale(0.1 -0.1)">
       <defs>
        <path id="DejaVuSans-34" d="M 2419 4116 
L 825 1625 
L 2419 1625 
L 2419 4116 
z
M 2253 4666 
L 3047 4666 
L 3047 1625 
L 3713 1625 
L 3713 1100 
L 3047 1100 
L 3047 0 
L 2419 0 
L 2419 1100 
L 313 1100 
L 313 1709 
L 2253 4666 
z
" transform="scale(0.015625)"/>
       </defs>
       <use xlink:href="#DejaVuSans-2212"/>
       <use xlink:href="#DejaVuSans-34" x="83.789062"/>
      </g>
     </g>
    </g>
    <g id="xtick_3">
     <g id="line2d_5">
      <path d="M 244.598295 354.96 
L 244.598295 22.32 
" clip-path="url(#pe7803fe1db)" style="fill: none; stroke: #b0b0b0; stroke-width: 0.8; stroke-linecap: square"/>
     </g>
     <g id="line2d_6">
      <g>
       <use xlink:href="#m12cc87d0a2" x="244.598295" y="354.96" style="stroke: #000000; stroke-width: 0.8"/>
      </g>
     </g>
     <g id="text_3">
      <!-- −2 -->
      <g transform="translate(237.227202 369.558437) scale(0.1 -0.1)">
       <defs>
        <path id="DejaVuSans-32" d="M 1228 531 
L 3431 531 
L 3431 0 
L 469 0 
L 469 531 
Q 828 903 1448 1529 
Q 2069 2156 2228 2338 
Q 2531 2678 2651 2914 
Q 2772 3150 2772 3378 
Q 2772 3750 2511 3984 
Q 2250 4219 1831 4219 
Q 1534 4219 1204 4116 
Q 875 4013 500 3803 
L 500 4441 
Q 881 4594 1212 4672 
Q 1544 4750 1819 4750 
Q 2544 4750 2975 4387 
Q 3406 4025 3406 3419 
Q 3406 3131 3298 2873 
Q 3191 2616 2906 2266 
Q 2828 2175 2409 1742 
Q 1991 1309 1228 531 
z
" transform="scale(0.015625)"/>
       </defs>
       <use xlink:href="#DejaVuSans-2212"/>
       <use xlink:href="#DejaVuSans-32" x="83.789062"/>
      </g>
     </g>
    </g>
    <g id="xtick_4">
     <g id="line2d_7">
      <path d="M 329.14375 354.96 
L 329.14375 22.32 
" clip-path="url(#pe7803fe1db)" style="fill: none; stroke: #b0b0b0; stroke-width: 0.8; stroke-linecap: square"/>
     </g>
     <g id="line2d_8">
      <g>
       <use xlink:href="#m12cc87d0a2" x="329.14375" y="354.96" style="stroke: #000000; stroke-width: 0.8"/>
      </g>
     </g>
     <g id="text_4">
      <!-- 0 -->
      <g transform="translate(325.9625 369.558437) scale(0.1 -0.1)">
       <defs>
        <path id="DejaVuSans-30" d="M 2034 4250 
Q 1547 4250 1301 3770 
Q 1056 3291 1056 2328 
Q 1056 1369 1301 889 
Q 1547 409 2034 409 
Q 2525 409 2770 889 
Q 3016 1369 3016 2328 
Q 3016 3291 2770 3770 
Q 2525 4250 2034 4250 
z
M 2034 4750 
Q 2819 4750 3233 4129 
Q 3647 3509 3647 2328 
Q 3647 1150 3233 529 
Q 2819 -91 2034 -91 
Q 1250 -91 836 529 
Q 422 1150 422 2328 
Q 422 3509 836 4129 
Q 1250 4750 2034 4750 
z
" transform="scale(0.015625)"/>
       </defs>
       <use xlink:href="#DejaVuSans-30"/>
      </g>
     </g>
    </g>
    <g id="xtick_5">
     <g id="line2d_9">
      <path d="M 413.689205 354.96 
L 413.689205 22.32 
" clip-path="url(#pe7803fe1db)" style="fill: none; stroke: #b0b0b0; stroke-width: 0.8; stroke-linecap: square"/>
     </g>
     <g id="line2d_10">
      <g>
       <use xlink:href="#m12cc87d0a2" x="413.689205" y="354.96" style="stroke: #000000; stroke-width: 0.8"/>
      </g>
     </g>
     <g id="text_5">
      <!-- 2 -->
      <g transform="translate(410.507955 369.558437) scale(0.1 -0.1)">
       <use xlink:href="#DejaVuSans-32"/>
      </g>
     </g>
    </g>
    <g id="xtick_6">
     <g id="line2d_11">
      <path d="M 498.234659 354.96 
L 498.234659 22.32 
" clip-path="url(#pe7803fe1db)" style="fill: none; stroke: #b0b0b0; stroke-width: 0.8; stroke-linecap: square"/>
     </g>
     <g id="line2d_12">
      <g>
       <use xlink:href="#m12cc87d0a2" x="498.234659" y="354.96" style="stroke: #000000; stroke-width: 0.8"/>
      </g>
     </g>
     <g id="text_6">
      <!-- 4 -->
      <g transform="translate(495.053409 369.558437) scale(0.1 -0.1)">
       <use xlink:href="#DejaVuSans-34"/>
      </g>
     </g>
    </g>
    <g id="xtick_7">
     <g id="line2d_13">
      <path d="M 582.780114 354.96 
L 582.780114 22.32 
" clip-path="url(#pe7803fe1db)" style="fill: none; stroke: #b0b0b0; stroke-width: 0.8; stroke-linecap: square"/>
     </g>
     <g id="line2d_14">
      <g>
       <use xlink:href="#m12cc87d0a2" x="582.780114" y="354.96" style="stroke: #000000; stroke-width: 0.8"/>
      </g>
     </g>
     <g id="text_7">
      <!-- 6 -->
      <g transform="translate(579.598864 369.558437) scale(0.1 -0.1)">
       <use xlink:href="#DejaVuSans-36"/>
      </g>
     </g>
    </g>
    <g id="text_8">
     <!-- $x$ -->
     <g transform="translate(326.14375 383.236562) scale(0.1 -0.1)">
      <defs>
       <path id="DejaVuSans-Oblique-78" d="M 3841 3500 
L 2234 1784 
L 3219 0 
L 2559 0 
L 1819 1388 
L 531 0 
L -166 0 
L 1556 1844 
L 641 3500 
L 1300 3500 
L 1972 2234 
L 3144 3500 
L 3841 3500 
z
" transform="scale(0.015625)"/>
      </defs>
      <use xlink:href="#DejaVuSans-Oblique-78" transform="translate(0 0.3125)"/>
     </g>
    </g>
   </g>
   <g id="matplotlib.axis_2">
    <g id="ytick_1">
     <g id="line2d_15">
      <path d="M 50.14375 339.84 
L 608.14375 339.84 
" clip-path="url(#pe7803fe1db)" style="fill: none; stroke: #b0b0b0; stroke-width: 0.8; stroke-linecap: square"/>
     </g>
     <g id="line2d_16">
      <defs>
       <path id="me0cf609f36" d="M 0 0 
L -3.5 0 
" style="stroke: #000000; stroke-width: 0.8"/>
      </defs>
      <g>
       <use xlink:href="#me0cf609f36" x="50.14375" y="339.84" style="stroke: #000000; stroke-width: 0.8"/>
      </g>
     </g>
     <g id="text_9">
      <!-- 0.00 -->
      <g transform="translate(20.878125 343.639219) scale(0.1 -0.1)">
       <defs>
        <path id="DejaVuSans-2e" d="M 684 794 
L 1344 794 
L 1344 0 
L 684 0 
L 684 794 
z
" transform="scale(0.015625)"/>
       </defs>
       <use xlink:href="#DejaVuSans-30"/>
       <use xlink:href="#DejaVuSans-2e" x="63.623047"/>
       <use xlink:href="#DejaVuSans-30" x="95.410156"/>
       <use xlink:href="#DejaVuSans-30" x="159.033203"/>
      </g>
     </g>
    </g>
    <g id="ytick_2">
     <g id="line2d_17">
      <path d="M 50.14375 294.418502 
L 608.14375 294.418502 
" clip-path="url(#pe7803fe1db)" style="fill: none; stroke: #b0b0b0; stroke-width: 0.8; stroke-linecap: square"/>
     </g>
     <g id="line2d_18">
      <g>
       <use xlink:href="#me0cf609f36" x="50.14375" y="294.418502" style="stroke: #000000; stroke-width: 0.8"/>
      </g>
     </g>
     <g id="text_10">
      <!-- 0.05 -->
      <g transform="translate(20.878125 298.21772) scale(0.1 -0.1)">
       <defs>
        <path id="DejaVuSans-35" d="M 691 4666 
L 3169 4666 
L 3169 4134 
L 1269 4134 
L 1269 2991 
Q 1406 3038 1543 3061 
Q 1681 3084 1819 3084 
Q 2600 3084 3056 2656 
Q 3513 2228 3513 1497 
Q 3513 744 3044 326 
Q 2575 -91 1722 -91 
Q 1428 -91 1123 -41 
Q 819 9 494 109 
L 494 744 
Q 775 591 1075 516 
Q 1375 441 1709 441 
Q 2250 441 2565 725 
Q 2881 1009 2881 1497 
Q 2881 1984 2565 2268 
Q 2250 2553 1709 2553 
Q 1456 2553 1204 2497 
Q 953 2441 691 2322 
L 691 4666 
z
" transform="scale(0.015625)"/>
       </defs>
       <use xlink:href="#DejaVuSans-30"/>
       <use xlink:href="#DejaVuSans-2e" x="63.623047"/>
       <use xlink:href="#DejaVuSans-30" x="95.410156"/>
       <use xlink:href="#DejaVuSans-35" x="159.033203"/>
      </g>
     </g>
    </g>
    <g id="ytick_3">
     <g id="line2d_19">
      <path d="M 50.14375 248.997003 
L 608.14375 248.997003 
" clip-path="url(#pe7803fe1db)" style="fill: none; stroke: #b0b0b0; stroke-width: 0.8; stroke-linecap: square"/>
     </g>
     <g id="line2d_20">
      <g>
       <use xlink:href="#me0cf609f36" x="50.14375" y="248.997003" style="stroke: #000000; stroke-width: 0.8"/>
      </g>
     </g>
     <g id="text_11">
      <!-- 0.10 -->
      <g transform="translate(20.878125 252.796222) scale(0.1 -0.1)">
       <defs>
        <path id="DejaVuSans-31" d="M 794 531 
L 1825 531 
L 1825 4091 
L 703 3866 
L 703 4441 
L 1819 4666 
L 2450 4666 
L 2450 531 
L 3481 531 
L 3481 0 
L 794 0 
L 794 531 
z
" transform="scale(0.015625)"/>
       </defs>
       <use xlink:href="#DejaVuSans-30"/>
       <use xlink:href="#DejaVuSans-2e" x="63.623047"/>
       <use xlink:href="#DejaVuSans-31" x="95.410156"/>
       <use xlink:href="#DejaVuSans-30" x="159.033203"/>
      </g>
     </g>
    </g>
    <g id="ytick_4">
     <g id="line2d_21">
      <path d="M 50.14375 203.575505 
L 608.14375 203.575505 
" clip-path="url(#pe7803fe1db)" style="fill: none; stroke: #b0b0b0; stroke-width: 0.8; stroke-linecap: square"/>
     </g>
     <g id="line2d_22">
      <g>
       <use xlink:href="#me0cf609f36" x="50.14375" y="203.575505" style="stroke: #000000; stroke-width: 0.8"/>
      </g>
     </g>
     <g id="text_12">
      <!-- 0.15 -->
      <g transform="translate(20.878125 207.374723) scale(0.1 -0.1)">
       <use xlink:href="#DejaVuSans-30"/>
       <use xlink:href="#DejaVuSans-2e" x="63.623047"/>
       <use xlink:href="#DejaVuSans-31" x="95.410156"/>
       <use xlink:href="#DejaVuSans-35" x="159.033203"/>
      </g>
     </g>
    </g>
    <g id="ytick_5">
     <g id="line2d_23">
      <path d="M 50.14375 158.154006 
L 608.14375 158.154006 
" clip-path="url(#pe7803fe1db)" style="fill: none; stroke: #b0b0b0; stroke-width: 0.8; stroke-linecap: square"/>
     </g>
     <g id="line2d_24">
      <g>
       <use xlink:href="#me0cf609f36" x="50.14375" y="158.154006" style="stroke: #000000; stroke-width: 0.8"/>
      </g>
     </g>
     <g id="text_13">
      <!-- 0.20 -->
      <g transform="translate(20.878125 161.953225) scale(0.1 -0.1)">
       <use xlink:href="#DejaVuSans-30"/>
       <use xlink:href="#DejaVuSans-2e" x="63.623047"/>
       <use xlink:href="#DejaVuSans-32" x="95.410156"/>
       <use xlink:href="#DejaVuSans-30" x="159.033203"/>
      </g>
     </g>
    </g>
    <g id="ytick_6">
     <g id="line2d_25">
      <path d="M 50.14375 112.732508 
L 608.14375 112.732508 
" clip-path="url(#pe7803fe1db)" style="fill: none; stroke: #b0b0b0; stroke-width: 0.8; stroke-linecap: square"/>
     </g>
     <g id="line2d_26">
      <g>
       <use xlink:href="#me0cf609f36" x="50.14375" y="112.732508" style="stroke: #000000; stroke-width: 0.8"/>
      </g>
     </g>
     <g id="text_14">
      <!-- 0.25 -->
      <g transform="translate(20.878125 116.531726) scale(0.1 -0.1)">
       <use xlink:href="#DejaVuSans-30"/>
       <use xlink:href="#DejaVuSans-2e" x="63.623047"/>
       <use xlink:href="#DejaVuSans-32" x="95.410156"/>
       <use xlink:href="#DejaVuSans-35" x="159.033203"/>
      </g>
     </g>
    </g>
    <g id="ytick_7">
     <g id="line2d_27">
      <path d="M 50.14375 67.311009 
L 608.14375 67.311009 
" clip-path="url(#pe7803fe1db)" style="fill: none; stroke: #b0b0b0; stroke-width: 0.8; stroke-linecap: square"/>
     </g>
     <g id="line2d_28">
      <g>
       <use xlink:href="#me0cf609f36" x="50.14375" y="67.311009" style="stroke: #000000; stroke-width: 0.8"/>
      </g>
     </g>
     <g id="text_15">
      <!-- 0.30 -->
      <g transform="translate(20.878125 71.110228) scale(0.1 -0.1)">
       <defs>
        <path id="DejaVuSans-33" d="M 2597 2516 
Q 3050 2419 3304 2112 
Q 3559 1806 3559 1356 
Q 3559 666 3084 287 
Q 2609 -91 1734 -91 
Q 1441 -91 1130 -33 
Q 819 25 488 141 
L 488 750 
Q 750 597 1062 519 
Q 1375 441 1716 441 
Q 2309 441 2620 675 
Q 2931 909 2931 1356 
Q 2931 1769 2642 2001 
Q 2353 2234 1838 2234 
L 1294 2234 
L 1294 2753 
L 1863 2753 
Q 2328 2753 2575 2939 
Q 2822 3125 2822 3475 
Q 2822 3834 2567 4026 
Q 2313 4219 1838 4219 
Q 1578 4219 1281 4162 
Q 984 4106 628 3988 
L 628 4550 
Q 988 4650 1302 4700 
Q 1616 4750 1894 4750 
Q 2613 4750 3031 4423 
Q 3450 4097 3450 3541 
Q 3450 3153 3228 2886 
Q 3006 2619 2597 2516 
z
" transform="scale(0.015625)"/>
       </defs>
       <use xlink:href="#DejaVuSans-30"/>
       <use xlink:href="#DejaVuSans-2e" x="63.623047"/>
       <use xlink:href="#DejaVuSans-33" x="95.410156"/>
       <use xlink:href="#DejaVuSans-30" x="159.033203"/>
      </g>
     </g>
    </g>
    <g id="text_16">
     <!-- Probability Density -->
     <g transform="translate(14.798438 235.666562) rotate(-90) scale(0.1 -0.1)">
      <defs>
       <path id="DejaVuSans-50" d="M 1259 4147 
L 1259 2394 
L 2053 2394 
Q 2494 2394 2734 2622 
Q 2975 2850 2975 3272 
Q 2975 3691 2734 3919 
Q 2494 4147 2053 4147 
L 1259 4147 
z
M 628 4666 
L 2053 4666 
Q 2838 4666 3239 4311 
Q 3641 3956 3641 3272 
Q 3641 2581 3239 2228 
Q 2838 1875 2053 1875 
L 1259 1875 
L 1259 0 
L 628 0 
L 628 4666 
z
" transform="scale(0.015625)"/>
       <path id="DejaVuSans-72" d="M 2631 2963 
Q 2534 3019 2420 3045 
Q 2306 3072 2169 3072 
Q 1681 3072 1420 2755 
Q 1159 2438 1159 1844 
L 1159 0 
L 581 0 
L 581 3500 
L 1159 3500 
L 1159 2956 
Q 1341 3275 1631 3429 
Q 1922 3584 2338 3584 
Q 2397 3584 2469 3576 
Q 2541 3569 2628 3553 
L 2631 2963 
z
" transform="scale(0.015625)"/>
       <path id="DejaVuSans-6f" d="M 1959 3097 
Q 1497 3097 1228 2736 
Q 959 2375 959 1747 
Q 959 1119 1226 758 
Q 1494 397 1959 397 
Q 2419 397 2687 759 
Q 2956 1122 2956 1747 
Q 2956 2369 2687 2733 
Q 2419 3097 1959 3097 
z
M 1959 3584 
Q 2709 3584 3137 3096 
Q 3566 2609 3566 1747 
Q 3566 888 3137 398 
Q 2709 -91 1959 -91 
Q 1206 -91 779 398 
Q 353 888 353 1747 
Q 353 2609 779 3096 
Q 1206 3584 1959 3584 
z
" transform="scale(0.015625)"/>
       <path id="DejaVuSans-62" d="M 3116 1747 
Q 3116 2381 2855 2742 
Q 2594 3103 2138 3103 
Q 1681 3103 1420 2742 
Q 1159 2381 1159 1747 
Q 1159 1113 1420 752 
Q 1681 391 2138 391 
Q 2594 391 2855 752 
Q 3116 1113 3116 1747 
z
M 1159 2969 
Q 1341 3281 1617 3432 
Q 1894 3584 2278 3584 
Q 2916 3584 3314 3078 
Q 3713 2572 3713 1747 
Q 3713 922 3314 415 
Q 2916 -91 2278 -91 
Q 1894 -91 1617 61 
Q 1341 213 1159 525 
L 1159 0 
L 581 0 
L 581 4863 
L 1159 4863 
L 1159 2969 
z
" transform="scale(0.015625)"/>
       <path id="DejaVuSans-61" d="M 2194 1759 
Q 1497 1759 1228 1600 
Q 959 1441 959 1056 
Q 959 750 1161 570 
Q 1363 391 1709 391 
Q 2188 391 2477 730 
Q 2766 1069 2766 1631 
L 2766 1759 
L 2194 1759 
z
M 3341 1997 
L 3341 0 
L 2766 0 
L 2766 531 
Q 2569 213 2275 61 
Q 1981 -91 1556 -91 
Q 1019 -91 701 211 
Q 384 513 384 1019 
Q 384 1609 779 1909 
Q 1175 2209 1959 2209 
L 2766 2209 
L 2766 2266 
Q 2766 2663 2505 2880 
Q 2244 3097 1772 3097 
Q 1472 3097 1187 3025 
Q 903 2953 641 2809 
L 641 3341 
Q 956 3463 1253 3523 
Q 1550 3584 1831 3584 
Q 2591 3584 2966 3190 
Q 3341 2797 3341 1997 
z
" transform="scale(0.015625)"/>
       <path id="DejaVuSans-69" d="M 603 3500 
L 1178 3500 
L 1178 0 
L 603 0 
L 603 3500 
z
M 603 4863 
L 1178 4863 
L 1178 4134 
L 603 4134 
L 603 4863 
z
" transform="scale(0.015625)"/>
       <path id="DejaVuSans-6c" d="M 603 4863 
L 1178 4863 
L 1178 0 
L 603 0 
L 603 4863 
z
" transform="scale(0.015625)"/>
       <path id="DejaVuSans-74" d="M 1172 4494 
L 1172 3500 
L 2356 3500 
L 2356 3053 
L 1172 3053 
L 1172 1153 
Q 1172 725 1289 603 
Q 1406 481 1766 481 
L 2356 481 
L 2356 0 
L 1766 0 
Q 1100 0 847 248 
Q 594 497 594 1153 
L 594 3053 
L 172 3053 
L 172 3500 
L 594 3500 
L 594 4494 
L 1172 4494 
z
" transform="scale(0.015625)"/>
       <path id="DejaVuSans-79" d="M 2059 -325 
Q 1816 -950 1584 -1140 
Q 1353 -1331 966 -1331 
L 506 -1331 
L 506 -850 
L 844 -850 
Q 1081 -850 1212 -737 
Q 1344 -625 1503 -206 
L 1606 56 
L 191 3500 
L 800 3500 
L 1894 763 
L 2988 3500 
L 3597 3500 
L 2059 -325 
z
" transform="scale(0.015625)"/>
       <path id="DejaVuSans-20" transform="scale(0.015625)"/>
       <path id="DejaVuSans-44" d="M 1259 4147 
L 1259 519 
L 2022 519 
Q 2988 519 3436 956 
Q 3884 1394 3884 2338 
Q 3884 3275 3436 3711 
Q 2988 4147 2022 4147 
L 1259 4147 
z
M 628 4666 
L 1925 4666 
Q 3281 4666 3915 4102 
Q 4550 3538 4550 2338 
Q 4550 1131 3912 565 
Q 3275 0 1925 0 
L 628 0 
L 628 4666 
z
" transform="scale(0.015625)"/>
       <path id="DejaVuSans-65" d="M 3597 1894 
L 3597 1613 
L 953 1613 
Q 991 1019 1311 708 
Q 1631 397 2203 397 
Q 2534 397 2845 478 
Q 3156 559 3463 722 
L 3463 178 
Q 3153 47 2828 -22 
Q 2503 -91 2169 -91 
Q 1331 -91 842 396 
Q 353 884 353 1716 
Q 353 2575 817 3079 
Q 1281 3584 2069 3584 
Q 2775 3584 3186 3129 
Q 3597 2675 3597 1894 
z
M 3022 2063 
Q 3016 2534 2758 2815 
Q 2500 3097 2075 3097 
Q 1594 3097 1305 2825 
Q 1016 2553 972 2059 
L 3022 2063 
z
" transform="scale(0.015625)"/>
       <path id="DejaVuSans-6e" d="M 3513 2113 
L 3513 0 
L 2938 0 
L 2938 2094 
Q 2938 2591 2744 2837 
Q 2550 3084 2163 3084 
Q 1697 3084 1428 2787 
Q 1159 2491 1159 1978 
L 1159 0 
L 581 0 
L 581 3500 
L 1159 3500 
L 1159 2956 
Q 1366 3272 1645 3428 
Q 1925 3584 2291 3584 
Q 2894 3584 3203 3211 
Q 3513 2838 3513 2113 
z
" transform="scale(0.015625)"/>
       <path id="DejaVuSans-73" d="M 2834 3397 
L 2834 2853 
Q 2591 2978 2328 3040 
Q 2066 3103 1784 3103 
Q 1356 3103 1142 2972 
Q 928 2841 928 2578 
Q 928 2378 1081 2264 
Q 1234 2150 1697 2047 
L 1894 2003 
Q 2506 1872 2764 1633 
Q 3022 1394 3022 966 
Q 3022 478 2636 193 
Q 2250 -91 1575 -91 
Q 1294 -91 989 -36 
Q 684 19 347 128 
L 347 722 
Q 666 556 975 473 
Q 1284 391 1588 391 
Q 1994 391 2212 530 
Q 2431 669 2431 922 
Q 2431 1156 2273 1281 
Q 2116 1406 1581 1522 
L 1381 1569 
Q 847 1681 609 1914 
Q 372 2147 372 2553 
Q 372 3047 722 3315 
Q 1072 3584 1716 3584 
Q 2034 3584 2315 3537 
Q 2597 3491 2834 3397 
z
" transform="scale(0.015625)"/>
      </defs>
      <use xlink:href="#DejaVuSans-50"/>
      <use xlink:href="#DejaVuSans-72" x="58.552734"/>
      <use xlink:href="#DejaVuSans-6f" x="97.416016"/>
      <use xlink:href="#DejaVuSans-62" x="158.597656"/>
      <use xlink:href="#DejaVuSans-61" x="222.074219"/>
      <use xlink:href="#DejaVuSans-62" x="283.353516"/>
      <use xlink:href="#DejaVuSans-69" x="346.830078"/>
      <use xlink:href="#DejaVuSans-6c" x="374.613281"/>
      <use xlink:href="#DejaVuSans-69" x="402.396484"/>
      <use xlink:href="#DejaVuSans-74" x="430.179688"/>
      <use xlink:href="#DejaVuSans-79" x="469.388672"/>
      <use xlink:href="#DejaVuSans-20" x="528.568359"/>
      <use xlink:href="#DejaVuSans-44" x="560.355469"/>
      <use xlink:href="#DejaVuSans-65" x="637.357422"/>
      <use xlink:href="#DejaVuSans-6e" x="698.880859"/>
      <use xlink:href="#DejaVuSans-73" x="762.259766"/>
      <use xlink:href="#DejaVuSans-69" x="814.359375"/>
      <use xlink:href="#DejaVuSans-74" x="842.142578"/>
      <use xlink:href="#DejaVuSans-79" x="881.351562"/>
     </g>
    </g>
   </g>
   <g id="line2d_29">
    <path d="M 75.507386 339.74274 
L 88.70968 339.51693 
L 97.341948 339.168132 
L 103.943095 338.696513 
L 109.52868 338.080553 
L 114.098705 337.3691 
L 118.160949 336.531079 
L 121.715413 335.599921 
L 125.269876 334.445007 
L 128.316559 333.24494 
L 131.363242 331.819699 
L 134.409925 330.136985 
L 137.456608 328.162043 
L 139.995511 326.26644 
L 142.534413 324.119946 
L 145.073316 321.699564 
L 147.612218 318.981896 
L 150.151121 315.943442 
L 152.690024 312.560949 
L 155.228926 308.811799 
L 157.767829 304.674457 
L 160.306731 300.128941 
L 162.845634 295.157339 
L 165.384536 289.744353 
L 167.923439 283.877854 
L 170.970122 276.227904 
L 174.016805 267.906835 
L 177.063488 258.918721 
L 180.110171 249.279165 
L 183.664635 237.248071 
L 187.219098 224.437434 
L 191.281342 208.964529 
L 196.359147 188.650346 
L 204.991416 152.9141 
L 211.084782 128.095782 
L 215.147026 112.386064 
L 218.70149 99.514118 
L 221.748173 89.316349 
L 224.287075 81.51532 
L 226.825978 74.430304 
L 228.8571 69.325951 
L 230.888222 64.759027 
L 232.919344 60.759799 
L 234.950466 57.355039 
L 236.473807 55.205564 
L 237.997149 53.411698 
L 239.52049 51.980313 
L 241.043832 50.916901 
L 242.567173 50.225535 
L 243.582734 49.972675 
L 244.598295 49.886786 
L 245.613856 49.967996 
L 246.629417 50.216142 
L 247.644979 50.630769 
L 249.16832 51.563161 
L 250.691662 52.864681 
L 252.215003 54.530181 
L 253.738345 56.553111 
L 255.261686 58.925564 
L 256.785028 61.638321 
L 258.81615 65.766422 
L 260.847272 70.452679 
L 262.878394 75.665563 
L 265.417296 82.869199 
L 267.956199 90.767774 
L 271.002882 101.051698 
L 274.557345 113.97698 
L 278.619589 129.678666 
L 284.205175 152.249382 
L 294.868566 195.486925 
L 299.43859 212.981453 
L 303.500834 227.591997 
L 307.055298 239.494774 
L 310.101981 248.963082 
L 313.148664 257.703691 
L 316.195347 265.68266 
L 318.73425 271.733938 
L 321.273152 277.234375 
L 323.812055 282.182359 
L 326.350957 286.580833 
L 328.382079 289.708571 
L 330.413201 292.494376 
L 332.444323 294.94492 
L 334.475445 297.068104 
L 336.506567 298.872924 
L 338.537689 300.369355 
L 340.568811 301.568244 
L 342.599933 302.481207 
L 344.631055 303.12054 
L 346.662178 303.499141 
L 348.6933 303.630435 
L 350.724422 303.528317 
L 352.755544 303.20709 
L 354.786666 302.681422 
L 357.325568 301.759703 
L 359.864471 300.57186 
L 362.403373 299.148345 
L 365.450056 297.172596 
L 369.00452 294.567099 
L 373.066764 291.299252 
L 379.667911 285.650185 
L 386.776838 279.640188 
L 390.839082 276.479388 
L 394.393545 273.984648 
L 397.440228 272.099105 
L 400.486911 270.484812 
L 403.025814 269.369123 
L 405.564716 268.478196 
L 408.103619 267.82419 
L 410.642521 267.416359 
L 413.181424 267.260964 
L 415.720327 267.361232 
L 418.259229 267.717356 
L 420.798132 268.326542 
L 423.337034 269.183105 
L 425.875937 270.278605 
L 428.414839 271.602034 
L 431.461522 273.472046 
L 434.508205 275.623894 
L 438.062669 278.449521 
L 441.617132 281.563402 
L 446.187157 285.898474 
L 451.772743 291.533474 
L 467.513938 307.615173 
L 472.591743 312.384298 
L 477.161768 316.361355 
L 481.224012 319.609638 
L 485.286256 322.568742 
L 489.3485 325.230549 
L 493.410744 327.595715 
L 497.472988 329.672305 
L 501.535232 331.474322 
L 505.597476 333.020236 
L 509.659721 334.331579 
L 514.229745 335.555518 
L 518.79977 336.546227 
L 523.877575 337.414246 
L 529.46316 338.135969 
L 535.556526 338.703635 
L 543.173234 339.174912 
L 552.313283 339.504957 
L 565.007796 339.72037 
L 582.780114 339.815685 
L 582.780114 339.815685 
" clip-path="url(#pe7803fe1db)" style="fill: none; stroke: #000000; stroke-width: 1.5; stroke-linecap: square"/>
   </g>
   <g id="line2d_30">
    <path d="M 75.507386 332.292794 
L 81.092972 330.842684 
L 86.678558 329.166439 
L 91.756363 327.425995 
L 96.834168 325.460166 
L 101.911973 323.250428 
L 106.989778 320.778554 
L 111.559802 318.315201 
L 116.129827 315.61319 
L 120.699852 312.66139 
L 125.269876 309.449899 
L 129.839901 305.970333 
L 134.409925 302.216119 
L 138.97995 298.182794 
L 143.549974 293.868299 
L 148.627779 288.745519 
L 153.705585 283.281643 
L 158.78339 277.486774 
L 164.368975 270.748638 
L 169.954561 263.656976 
L 176.047927 255.560751 
L 183.156854 245.718433 
L 191.789123 233.352821 
L 215.654807 198.901987 
L 221.748173 190.603281 
L 227.333758 183.372046 
L 231.903783 177.788062 
L 236.473807 172.555025 
L 240.536051 168.235459 
L 244.598295 164.260501 
L 248.152759 161.08781 
L 251.707223 158.218932 
L 254.753906 156.014146 
L 257.800589 154.053938 
L 260.847272 152.346663 
L 263.893955 150.89965 
L 266.940638 149.719143 
L 269.987321 148.810262 
L 272.526223 148.263242 
L 275.065126 147.909277 
L 277.604028 147.749441 
L 280.142931 147.784221 
L 282.681834 148.01351 
L 285.220736 148.436612 
L 287.759639 149.052243 
L 290.806322 150.042474 
L 293.853005 151.302925 
L 296.899688 152.82814 
L 299.946371 154.611544 
L 302.993054 156.645499 
L 306.039737 158.921354 
L 309.5942 161.869392 
L 313.148664 165.11682 
L 316.703128 168.645402 
L 320.765372 172.997219 
L 324.827616 177.659746 
L 329.39764 183.23596 
L 334.475445 189.786198 
L 340.568811 198.046666 
L 347.677739 208.086631 
L 358.84891 224.316504 
L 372.051203 243.409976 
L 379.667911 254.03076 
L 386.269057 262.854565 
L 392.362423 270.614332 
L 397.948009 277.359621 
L 403.025814 283.161405 
L 408.103619 288.632467 
L 413.181424 293.762597 
L 417.751449 298.083761 
L 422.321473 302.123738 
L 426.891498 305.884527 
L 431.461522 309.370536 
L 436.031547 312.588292 
L 440.601571 315.54614 
L 445.171596 318.253949 
L 449.741621 320.722823 
L 454.819426 323.200485 
L 459.897231 325.415628 
L 464.975036 327.386468 
L 470.052841 329.131527 
L 475.638426 330.812396 
L 481.224012 332.266667 
L 487.317378 333.622198 
L 493.918525 334.85129 
L 501.027452 335.934701 
L 508.64416 336.862198 
L 517.276428 337.674057 
L 526.924258 338.343377 
L 538.095429 338.882167 
L 551.297722 339.288887 
L 568.562259 339.583333 
L 582.780114 339.707936 
L 582.780114 339.707936 
" clip-path="url(#pe7803fe1db)" style="fill: none; stroke: #0000ff; stroke-width: 1.5; stroke-linecap: square"/>
   </g>
   <g id="line2d_31">
    <path d="M 75.507386 339.147235 
L 83.631874 338.643689 
L 90.233021 338.010247 
L 95.818607 337.253041 
L 100.896412 336.333021 
L 105.466436 335.267728 
L 109.52868 334.091371 
L 113.083144 332.853221 
L 116.637607 331.390094 
L 120.192071 329.67075 
L 123.238754 327.967739 
L 126.285437 326.029568 
L 129.33212 323.832981 
L 132.378803 321.353997 
L 135.425486 318.568167 
L 138.472169 315.450878 
L 141.518852 311.977713 
L 144.565535 308.124855 
L 147.612218 303.86954 
L 150.658902 299.190553 
L 153.705585 294.068765 
L 156.752268 288.487691 
L 159.798951 282.434081 
L 162.845634 275.898515 
L 165.892317 268.875996 
L 169.44678 260.067916 
L 173.001244 250.606908 
L 176.555707 240.513962 
L 180.617951 228.248606 
L 184.680196 215.272134 
L 189.25022 199.940672 
L 194.835806 180.388665 
L 204.991416 143.775654 
L 211.592562 120.362013 
L 216.162587 104.882422 
L 220.224831 91.908082 
L 223.779295 81.336147 
L 226.825978 72.964069 
L 229.36488 66.536668 
L 231.903783 60.656519 
L 234.442685 55.365214 
L 236.473807 51.581778 
L 238.504929 48.217143 
L 240.536051 45.287067 
L 242.567173 42.805377 
L 244.090515 41.24553 
L 245.613856 39.948757 
L 247.137198 38.91855 
L 248.66054 38.15769 
L 250.183881 37.668236 
L 251.707223 37.451512 
L 253.230564 37.508106 
L 254.753906 37.837865 
L 256.277247 38.439895 
L 257.800589 39.312567 
L 259.32393 40.453521 
L 260.847272 41.859681 
L 262.370613 43.527266 
L 264.401735 46.149552 
L 266.432857 49.216144 
L 268.463979 52.712604 
L 270.495101 56.622596 
L 273.034004 62.063877 
L 275.572906 68.08399 
L 278.111809 74.640517 
L 281.158492 83.152258 
L 284.712956 93.864868 
L 288.267419 105.287836 
L 292.837444 120.788675 
L 298.93081 142.389975 
L 314.164225 196.868627 
L 319.24203 214.009125 
L 323.812055 228.630666 
L 327.874299 240.873288 
L 331.428762 250.944858 
L 334.983226 260.383564 
L 338.537689 269.168826 
L 342.092153 277.291385 
L 345.138836 283.726611 
L 348.185519 289.681488 
L 351.232202 295.166277 
L 354.278885 300.194948 
L 357.325568 304.784578 
L 360.372251 308.954777 
L 363.418934 312.727121 
L 366.465617 316.124631 
L 369.5123 319.171285 
L 372.558983 321.891571 
L 375.605666 324.310097 
L 378.65235 326.451239 
L 381.699033 328.338847 
L 384.745716 329.995997 
L 388.300179 331.667493 
L 391.854643 333.088487 
L 395.409106 334.289795 
L 399.47135 335.429953 
L 404.041375 336.461246 
L 409.11918 337.350735 
L 414.704766 338.081761 
L 420.798132 338.653311 
L 428.414839 339.128662 
L 437.554888 339.466401 
L 450.249401 339.695282 
L 471.068402 339.813331 
L 532.509843 339.839932 
L 582.780114 339.84 
L 582.780114 339.84 
" clip-path="url(#pe7803fe1db)" style="fill: none; stroke: #ff0000; stroke-width: 1.5; stroke-linecap: square"/>
   </g>
   <g id="patch_3">
    <path d="M 50.14375 354.96 
L 50.14375 22.32 
" style="fill: none; stroke: #000000; stroke-width: 0.8; stroke-linejoin: miter; stroke-linecap: square"/>
   </g>
   <g id="patch_4">
    <path d="M 608.14375 354.96 
L 608.14375 22.32 
" style="fill: none; stroke: #000000; stroke-width: 0.8; stroke-linejoin: miter; stroke-linecap: square"/>
   </g>
   <g id="patch_5">
    <path d="M 50.14375 354.96 
L 608.14375 354.96 
" style="fill: none; stroke: #000000; stroke-width: 0.8; stroke-linejoin: miter; stroke-linecap: square"/>
   </g>
   <g id="patch_6">
    <path d="M 50.14375 22.32 
L 608.14375 22.32 
" style="fill: none; stroke: #000000; stroke-width: 0.8; stroke-linejoin: miter; stroke-linecap: square"/>
   </g>
   <g id="text_17">
    <!-- Approximations of $p(x)$ Using Forward and Reverse KL Divergences -->
    <g transform="translate(127.18375 16.32) scale(0.12 -0.12)">
     <defs>
      <path id="DejaVuSans-41" d="M 2188 4044 
L 1331 1722 
L 3047 1722 
L 2188 4044 
z
M 1831 4666 
L 2547 4666 
L 4325 0 
L 3669 0 
L 3244 1197 
L 1141 1197 
L 716 0 
L 50 0 
L 1831 4666 
z
" transform="scale(0.015625)"/>
      <path id="DejaVuSans-70" d="M 1159 525 
L 1159 -1331 
L 581 -1331 
L 581 3500 
L 1159 3500 
L 1159 2969 
Q 1341 3281 1617 3432 
Q 1894 3584 2278 3584 
Q 2916 3584 3314 3078 
Q 3713 2572 3713 1747 
Q 3713 922 3314 415 
Q 2916 -91 2278 -91 
Q 1894 -91 1617 61 
Q 1341 213 1159 525 
z
M 3116 1747 
Q 3116 2381 2855 2742 
Q 2594 3103 2138 3103 
Q 1681 3103 1420 2742 
Q 1159 2381 1159 1747 
Q 1159 1113 1420 752 
Q 1681 391 2138 391 
Q 2594 391 2855 752 
Q 3116 1113 3116 1747 
z
" transform="scale(0.015625)"/>
      <path id="DejaVuSans-78" d="M 3513 3500 
L 2247 1797 
L 3578 0 
L 2900 0 
L 1881 1375 
L 863 0 
L 184 0 
L 1544 1831 
L 300 3500 
L 978 3500 
L 1906 2253 
L 2834 3500 
L 3513 3500 
z
" transform="scale(0.015625)"/>
      <path id="DejaVuSans-6d" d="M 3328 2828 
Q 3544 3216 3844 3400 
Q 4144 3584 4550 3584 
Q 5097 3584 5394 3201 
Q 5691 2819 5691 2113 
L 5691 0 
L 5113 0 
L 5113 2094 
Q 5113 2597 4934 2840 
Q 4756 3084 4391 3084 
Q 3944 3084 3684 2787 
Q 3425 2491 3425 1978 
L 3425 0 
L 2847 0 
L 2847 2094 
Q 2847 2600 2669 2842 
Q 2491 3084 2119 3084 
Q 1678 3084 1418 2786 
Q 1159 2488 1159 1978 
L 1159 0 
L 581 0 
L 581 3500 
L 1159 3500 
L 1159 2956 
Q 1356 3278 1631 3431 
Q 1906 3584 2284 3584 
Q 2666 3584 2933 3390 
Q 3200 3197 3328 2828 
z
" transform="scale(0.015625)"/>
      <path id="DejaVuSans-66" d="M 2375 4863 
L 2375 4384 
L 1825 4384 
Q 1516 4384 1395 4259 
Q 1275 4134 1275 3809 
L 1275 3500 
L 2222 3500 
L 2222 3053 
L 1275 3053 
L 1275 0 
L 697 0 
L 697 3053 
L 147 3053 
L 147 3500 
L 697 3500 
L 697 3744 
Q 697 4328 969 4595 
Q 1241 4863 1831 4863 
L 2375 4863 
z
" transform="scale(0.015625)"/>
      <path id="DejaVuSans-Oblique-70" d="M 3175 2156 
Q 3175 2616 2975 2859 
Q 2775 3103 2400 3103 
Q 2144 3103 1911 2972 
Q 1678 2841 1497 2591 
Q 1319 2344 1212 1994 
Q 1106 1644 1106 1300 
Q 1106 863 1306 627 
Q 1506 391 1875 391 
Q 2147 391 2380 519 
Q 2613 647 2778 891 
Q 2956 1147 3065 1494 
Q 3175 1841 3175 2156 
z
M 1394 2969 
Q 1625 3272 1939 3428 
Q 2253 3584 2638 3584 
Q 3175 3584 3472 3232 
Q 3769 2881 3769 2247 
Q 3769 1728 3584 1258 
Q 3400 788 3053 416 
Q 2822 169 2531 39 
Q 2241 -91 1919 -91 
Q 1547 -91 1294 64 
Q 1041 219 916 525 
L 556 -1331 
L -19 -1331 
L 922 3500 
L 1497 3500 
L 1394 2969 
z
" transform="scale(0.015625)"/>
      <path id="DejaVuSans-28" d="M 1984 4856 
Q 1566 4138 1362 3434 
Q 1159 2731 1159 2009 
Q 1159 1288 1364 580 
Q 1569 -128 1984 -844 
L 1484 -844 
Q 1016 -109 783 600 
Q 550 1309 550 2009 
Q 550 2706 781 3412 
Q 1013 4119 1484 4856 
L 1984 4856 
z
" transform="scale(0.015625)"/>
      <path id="DejaVuSans-29" d="M 513 4856 
L 1013 4856 
Q 1481 4119 1714 3412 
Q 1947 2706 1947 2009 
Q 1947 1309 1714 600 
Q 1481 -109 1013 -844 
L 513 -844 
Q 928 -128 1133 580 
Q 1338 1288 1338 2009 
Q 1338 2731 1133 3434 
Q 928 4138 513 4856 
z
" transform="scale(0.015625)"/>
      <path id="DejaVuSans-55" d="M 556 4666 
L 1191 4666 
L 1191 1831 
Q 1191 1081 1462 751 
Q 1734 422 2344 422 
Q 2950 422 3222 751 
Q 3494 1081 3494 1831 
L 3494 4666 
L 4128 4666 
L 4128 1753 
Q 4128 841 3676 375 
Q 3225 -91 2344 -91 
Q 1459 -91 1007 375 
Q 556 841 556 1753 
L 556 4666 
z
" transform="scale(0.015625)"/>
      <path id="DejaVuSans-67" d="M 2906 1791 
Q 2906 2416 2648 2759 
Q 2391 3103 1925 3103 
Q 1463 3103 1205 2759 
Q 947 2416 947 1791 
Q 947 1169 1205 825 
Q 1463 481 1925 481 
Q 2391 481 2648 825 
Q 2906 1169 2906 1791 
z
M 3481 434 
Q 3481 -459 3084 -895 
Q 2688 -1331 1869 -1331 
Q 1566 -1331 1297 -1286 
Q 1028 -1241 775 -1147 
L 775 -588 
Q 1028 -725 1275 -790 
Q 1522 -856 1778 -856 
Q 2344 -856 2625 -561 
Q 2906 -266 2906 331 
L 2906 616 
Q 2728 306 2450 153 
Q 2172 0 1784 0 
Q 1141 0 747 490 
Q 353 981 353 1791 
Q 353 2603 747 3093 
Q 1141 3584 1784 3584 
Q 2172 3584 2450 3431 
Q 2728 3278 2906 2969 
L 2906 3500 
L 3481 3500 
L 3481 434 
z
" transform="scale(0.015625)"/>
      <path id="DejaVuSans-46" d="M 628 4666 
L 3309 4666 
L 3309 4134 
L 1259 4134 
L 1259 2759 
L 3109 2759 
L 3109 2228 
L 1259 2228 
L 1259 0 
L 628 0 
L 628 4666 
z
" transform="scale(0.015625)"/>
      <path id="DejaVuSans-77" d="M 269 3500 
L 844 3500 
L 1563 769 
L 2278 3500 
L 2956 3500 
L 3675 769 
L 4391 3500 
L 4966 3500 
L 4050 0 
L 3372 0 
L 2619 2869 
L 1863 0 
L 1184 0 
L 269 3500 
z
" transform="scale(0.015625)"/>
      <path id="DejaVuSans-64" d="M 2906 2969 
L 2906 4863 
L 3481 4863 
L 3481 0 
L 2906 0 
L 2906 525 
Q 2725 213 2448 61 
Q 2172 -91 1784 -91 
Q 1150 -91 751 415 
Q 353 922 353 1747 
Q 353 2572 751 3078 
Q 1150 3584 1784 3584 
Q 2172 3584 2448 3432 
Q 2725 3281 2906 2969 
z
M 947 1747 
Q 947 1113 1208 752 
Q 1469 391 1925 391 
Q 2381 391 2643 752 
Q 2906 1113 2906 1747 
Q 2906 2381 2643 2742 
Q 2381 3103 1925 3103 
Q 1469 3103 1208 2742 
Q 947 2381 947 1747 
z
" transform="scale(0.015625)"/>
      <path id="DejaVuSans-52" d="M 2841 2188 
Q 3044 2119 3236 1894 
Q 3428 1669 3622 1275 
L 4263 0 
L 3584 0 
L 2988 1197 
Q 2756 1666 2539 1819 
Q 2322 1972 1947 1972 
L 1259 1972 
L 1259 0 
L 628 0 
L 628 4666 
L 2053 4666 
Q 2853 4666 3247 4331 
Q 3641 3997 3641 3322 
Q 3641 2881 3436 2590 
Q 3231 2300 2841 2188 
z
M 1259 4147 
L 1259 2491 
L 2053 2491 
Q 2509 2491 2742 2702 
Q 2975 2913 2975 3322 
Q 2975 3731 2742 3939 
Q 2509 4147 2053 4147 
L 1259 4147 
z
" transform="scale(0.015625)"/>
      <path id="DejaVuSans-76" d="M 191 3500 
L 800 3500 
L 1894 563 
L 2988 3500 
L 3597 3500 
L 2284 0 
L 1503 0 
L 191 3500 
z
" transform="scale(0.015625)"/>
      <path id="DejaVuSans-4b" d="M 628 4666 
L 1259 4666 
L 1259 2694 
L 3353 4666 
L 4166 4666 
L 1850 2491 
L 4331 0 
L 3500 0 
L 1259 2247 
L 1259 0 
L 628 0 
L 628 4666 
z
" transform="scale(0.015625)"/>
      <path id="DejaVuSans-4c" d="M 628 4666 
L 1259 4666 
L 1259 531 
L 3531 531 
L 3531 0 
L 628 0 
L 628 4666 
z
" transform="scale(0.015625)"/>
      <path id="DejaVuSans-63" d="M 3122 3366 
L 3122 2828 
Q 2878 2963 2633 3030 
Q 2388 3097 2138 3097 
Q 1578 3097 1268 2742 
Q 959 2388 959 1747 
Q 959 1106 1268 751 
Q 1578 397 2138 397 
Q 2388 397 2633 464 
Q 2878 531 3122 666 
L 3122 134 
Q 2881 22 2623 -34 
Q 2366 -91 2075 -91 
Q 1284 -91 818 406 
Q 353 903 353 1747 
Q 353 2603 823 3093 
Q 1294 3584 2113 3584 
Q 2378 3584 2631 3529 
Q 2884 3475 3122 3366 
z
" transform="scale(0.015625)"/>
     </defs>
     <use xlink:href="#DejaVuSans-41" transform="translate(0 0.015625)"/>
     <use xlink:href="#DejaVuSans-70" transform="translate(68.408203 0.015625)"/>
     <use xlink:href="#DejaVuSans-70" transform="translate(131.884766 0.015625)"/>
     <use xlink:href="#DejaVuSans-72" transform="translate(195.361328 0.015625)"/>
     <use xlink:href="#DejaVuSans-6f" transform="translate(236.474609 0.015625)"/>
     <use xlink:href="#DejaVuSans-78" transform="translate(297.65625 0.015625)"/>
     <use xlink:href="#DejaVuSans-69" transform="translate(356.835938 0.015625)"/>
     <use xlink:href="#DejaVuSans-6d" transform="translate(384.619141 0.015625)"/>
     <use xlink:href="#DejaVuSans-61" transform="translate(482.03125 0.015625)"/>
     <use xlink:href="#DejaVuSans-74" transform="translate(543.310547 0.015625)"/>
     <use xlink:href="#DejaVuSans-69" transform="translate(582.519531 0.015625)"/>
     <use xlink:href="#DejaVuSans-6f" transform="translate(610.302734 0.015625)"/>
     <use xlink:href="#DejaVuSans-6e" transform="translate(671.484375 0.015625)"/>
     <use xlink:href="#DejaVuSans-73" transform="translate(734.863281 0.015625)"/>
     <use xlink:href="#DejaVuSans-20" transform="translate(786.962891 0.015625)"/>
     <use xlink:href="#DejaVuSans-6f" transform="translate(818.75 0.015625)"/>
     <use xlink:href="#DejaVuSans-66" transform="translate(879.931641 0.015625)"/>
     <use xlink:href="#DejaVuSans-20" transform="translate(915.136719 0.015625)"/>
     <use xlink:href="#DejaVuSans-Oblique-70" transform="translate(946.923828 0.015625)"/>
     <use xlink:href="#DejaVuSans-28" transform="translate(1010.400391 0.015625)"/>
     <use xlink:href="#DejaVuSans-Oblique-78" transform="translate(1049.414062 0.015625)"/>
     <use xlink:href="#DejaVuSans-29" transform="translate(1108.59375 0.015625)"/>
     <use xlink:href="#DejaVuSans-20" transform="translate(1147.607422 0.015625)"/>
     <use xlink:href="#DejaVuSans-55" transform="translate(1179.394531 0.015625)"/>
     <use xlink:href="#DejaVuSans-73" transform="translate(1252.587891 0.015625)"/>
     <use xlink:href="#DejaVuSans-69" transform="translate(1304.6875 0.015625)"/>
     <use xlink:href="#DejaVuSans-6e" transform="translate(1332.470703 0.015625)"/>
     <use xlink:href="#DejaVuSans-67" transform="translate(1395.849609 0.015625)"/>
     <use xlink:href="#DejaVuSans-20" transform="translate(1459.326172 0.015625)"/>
     <use xlink:href="#DejaVuSans-46" transform="translate(1491.113281 0.015625)"/>
     <use xlink:href="#DejaVuSans-6f" transform="translate(1548.632812 0.015625)"/>
     <use xlink:href="#DejaVuSans-72" transform="translate(1609.814453 0.015625)"/>
     <use xlink:href="#DejaVuSans-77" transform="translate(1650.927734 0.015625)"/>
     <use xlink:href="#DejaVuSans-61" transform="translate(1732.714844 0.015625)"/>
     <use xlink:href="#DejaVuSans-72" transform="translate(1793.994141 0.015625)"/>
     <use xlink:href="#DejaVuSans-64" transform="translate(1835.107422 0.015625)"/>
     <use xlink:href="#DejaVuSans-20" transform="translate(1898.583984 0.015625)"/>
     <use xlink:href="#DejaVuSans-61" transform="translate(1930.371094 0.015625)"/>
     <use xlink:href="#DejaVuSans-6e" transform="translate(1991.650391 0.015625)"/>
     <use xlink:href="#DejaVuSans-64" transform="translate(2055.029297 0.015625)"/>
     <use xlink:href="#DejaVuSans-20" transform="translate(2118.505859 0.015625)"/>
     <use xlink:href="#DejaVuSans-52" transform="translate(2150.292969 0.015625)"/>
     <use xlink:href="#DejaVuSans-65" transform="translate(2219.775391 0.015625)"/>
     <use xlink:href="#DejaVuSans-76" transform="translate(2281.298828 0.015625)"/>
     <use xlink:href="#DejaVuSans-65" transform="translate(2340.478516 0.015625)"/>
     <use xlink:href="#DejaVuSans-72" transform="translate(2402.001953 0.015625)"/>
     <use xlink:href="#DejaVuSans-73" transform="translate(2443.115234 0.015625)"/>
     <use xlink:href="#DejaVuSans-65" transform="translate(2495.214844 0.015625)"/>
     <use xlink:href="#DejaVuSans-20" transform="translate(2556.738281 0.015625)"/>
     <use xlink:href="#DejaVuSans-4b" transform="translate(2588.525391 0.015625)"/>
     <use xlink:href="#DejaVuSans-4c" transform="translate(2654.101562 0.015625)"/>
     <use xlink:href="#DejaVuSans-20" transform="translate(2709.814453 0.015625)"/>
     <use xlink:href="#DejaVuSans-44" transform="translate(2741.601562 0.015625)"/>
     <use xlink:href="#DejaVuSans-69" transform="translate(2818.603516 0.015625)"/>
     <use xlink:href="#DejaVuSans-76" transform="translate(2846.386719 0.015625)"/>
     <use xlink:href="#DejaVuSans-65" transform="translate(2905.566406 0.015625)"/>
     <use xlink:href="#DejaVuSans-72" transform="translate(2967.089844 0.015625)"/>
     <use xlink:href="#DejaVuSans-67" transform="translate(3008.203125 0.015625)"/>
     <use xlink:href="#DejaVuSans-65" transform="translate(3071.679688 0.015625)"/>
     <use xlink:href="#DejaVuSans-6e" transform="translate(3133.203125 0.015625)"/>
     <use xlink:href="#DejaVuSans-63" transform="translate(3196.582031 0.015625)"/>
     <use xlink:href="#DejaVuSans-65" transform="translate(3251.5625 0.015625)"/>
     <use xlink:href="#DejaVuSans-73" transform="translate(3313.085938 0.015625)"/>
    </g>
   </g>
   <g id="legend_1">
    <g id="patch_7">
     <path d="M 363.34375 74.42 
L 601.14375 74.42 
Q 603.14375 74.42 603.14375 72.42 
L 603.14375 29.32 
Q 603.14375 27.32 601.14375 27.32 
L 363.34375 27.32 
Q 361.34375 27.32 361.34375 29.32 
L 361.34375 72.42 
Q 361.34375 74.42 363.34375 74.42 
z
" style="fill: #ffffff; opacity: 0.8; stroke: #cccccc; stroke-linejoin: miter"/>
    </g>
    <g id="line2d_32">
     <path d="M 365.34375 35.42 
L 375.34375 35.42 
L 385.34375 35.42 
" style="fill: none; stroke: #000000; stroke-width: 1.5; stroke-linecap: square"/>
    </g>
    <g id="text_18">
     <!-- $p(x)$ (Bimodal Distribution) -->
     <g transform="translate(393.34375 38.92) scale(0.1 -0.1)">
      <defs>
       <path id="DejaVuSans-42" d="M 1259 2228 
L 1259 519 
L 2272 519 
Q 2781 519 3026 730 
Q 3272 941 3272 1375 
Q 3272 1813 3026 2020 
Q 2781 2228 2272 2228 
L 1259 2228 
z
M 1259 4147 
L 1259 2741 
L 2194 2741 
Q 2656 2741 2882 2914 
Q 3109 3088 3109 3444 
Q 3109 3797 2882 3972 
Q 2656 4147 2194 4147 
L 1259 4147 
z
M 628 4666 
L 2241 4666 
Q 2963 4666 3353 4366 
Q 3744 4066 3744 3513 
Q 3744 3084 3544 2831 
Q 3344 2578 2956 2516 
Q 3422 2416 3680 2098 
Q 3938 1781 3938 1306 
Q 3938 681 3513 340 
Q 3088 0 2303 0 
L 628 0 
L 628 4666 
z
" transform="scale(0.015625)"/>
       <path id="DejaVuSans-75" d="M 544 1381 
L 544 3500 
L 1119 3500 
L 1119 1403 
Q 1119 906 1312 657 
Q 1506 409 1894 409 
Q 2359 409 2629 706 
Q 2900 1003 2900 1516 
L 2900 3500 
L 3475 3500 
L 3475 0 
L 2900 0 
L 2900 538 
Q 2691 219 2414 64 
Q 2138 -91 1772 -91 
Q 1169 -91 856 284 
Q 544 659 544 1381 
z
M 1991 3584 
L 1991 3584 
z
" transform="scale(0.015625)"/>
      </defs>
      <use xlink:href="#DejaVuSans-Oblique-70" transform="translate(0 0.015625)"/>
      <use xlink:href="#DejaVuSans-28" transform="translate(63.476562 0.015625)"/>
      <use xlink:href="#DejaVuSans-Oblique-78" transform="translate(102.490234 0.015625)"/>
      <use xlink:href="#DejaVuSans-29" transform="translate(161.669922 0.015625)"/>
      <use xlink:href="#DejaVuSans-20" transform="translate(200.683594 0.015625)"/>
      <use xlink:href="#DejaVuSans-28" transform="translate(232.470703 0.015625)"/>
      <use xlink:href="#DejaVuSans-42" transform="translate(271.484375 0.015625)"/>
      <use xlink:href="#DejaVuSans-69" transform="translate(340.087891 0.015625)"/>
      <use xlink:href="#DejaVuSans-6d" transform="translate(367.871094 0.015625)"/>
      <use xlink:href="#DejaVuSans-6f" transform="translate(465.283203 0.015625)"/>
      <use xlink:href="#DejaVuSans-64" transform="translate(526.464844 0.015625)"/>
      <use xlink:href="#DejaVuSans-61" transform="translate(589.941406 0.015625)"/>
      <use xlink:href="#DejaVuSans-6c" transform="translate(651.220703 0.015625)"/>
      <use xlink:href="#DejaVuSans-20" transform="translate(679.003906 0.015625)"/>
      <use xlink:href="#DejaVuSans-44" transform="translate(710.791016 0.015625)"/>
      <use xlink:href="#DejaVuSans-69" transform="translate(787.792969 0.015625)"/>
      <use xlink:href="#DejaVuSans-73" transform="translate(815.576172 0.015625)"/>
      <use xlink:href="#DejaVuSans-74" transform="translate(867.675781 0.015625)"/>
      <use xlink:href="#DejaVuSans-72" transform="translate(906.884766 0.015625)"/>
      <use xlink:href="#DejaVuSans-69" transform="translate(947.998047 0.015625)"/>
      <use xlink:href="#DejaVuSans-62" transform="translate(975.78125 0.015625)"/>
      <use xlink:href="#DejaVuSans-75" transform="translate(1039.257812 0.015625)"/>
      <use xlink:href="#DejaVuSans-74" transform="translate(1102.636719 0.015625)"/>
      <use xlink:href="#DejaVuSans-69" transform="translate(1141.845703 0.015625)"/>
      <use xlink:href="#DejaVuSans-6f" transform="translate(1169.628906 0.015625)"/>
      <use xlink:href="#DejaVuSans-6e" transform="translate(1230.810547 0.015625)"/>
      <use xlink:href="#DejaVuSans-29" transform="translate(1294.189453 0.015625)"/>
     </g>
    </g>
    <g id="line2d_33">
     <path d="M 365.34375 50.12 
L 375.34375 50.12 
L 385.34375 50.12 
" style="fill: none; stroke: #0000ff; stroke-width: 1.5; stroke-linecap: square"/>
    </g>
    <g id="text_19">
     <!-- $q_{forward}(x)$ (Mean-Seeking Approximation) -->
     <g transform="translate(393.34375 53.62) scale(0.1 -0.1)">
      <defs>
       <path id="DejaVuSans-Oblique-71" d="M 2669 525 
Q 2438 222 2123 65 
Q 1809 -91 1428 -91 
Q 897 -91 595 267 
Q 294 625 294 1253 
Q 294 1759 480 2231 
Q 666 2703 1013 3078 
Q 1238 3322 1530 3453 
Q 1822 3584 2144 3584 
Q 2531 3584 2781 3431 
Q 3031 3278 3144 2969 
L 3244 3494 
L 3822 3494 
L 2888 -1319 
L 2309 -1319 
L 2669 525 
z
M 891 1338 
Q 891 875 1084 633 
Q 1278 391 1644 391 
Q 2188 391 2572 911 
Q 2956 1431 2956 2175 
Q 2956 2625 2757 2864 
Q 2559 3103 2188 3103 
Q 1916 3103 1684 2976 
Q 1453 2850 1281 2606 
Q 1100 2350 995 2006 
Q 891 1663 891 1338 
z
" transform="scale(0.015625)"/>
       <path id="DejaVuSans-Oblique-66" d="M 3059 4863 
L 2969 4384 
L 2419 4384 
Q 2106 4384 1964 4261 
Q 1822 4138 1753 3809 
L 1691 3500 
L 2638 3500 
L 2553 3053 
L 1606 3053 
L 1013 0 
L 434 0 
L 1031 3053 
L 481 3053 
L 563 3500 
L 1113 3500 
L 1159 3744 
Q 1278 4363 1576 4613 
Q 1875 4863 2516 4863 
L 3059 4863 
z
" transform="scale(0.015625)"/>
       <path id="DejaVuSans-Oblique-6f" d="M 1625 -91 
Q 1009 -91 651 289 
Q 294 669 294 1325 
Q 294 1706 417 2101 
Q 541 2497 738 2766 
Q 1047 3184 1428 3384 
Q 1809 3584 2291 3584 
Q 2888 3584 3255 3212 
Q 3622 2841 3622 2241 
Q 3622 1825 3500 1412 
Q 3378 1000 3181 728 
Q 2875 309 2494 109 
Q 2113 -91 1625 -91 
z
M 891 1344 
Q 891 869 1089 633 
Q 1288 397 1691 397 
Q 2269 397 2648 901 
Q 3028 1406 3028 2181 
Q 3028 2634 2825 2865 
Q 2622 3097 2228 3097 
Q 1903 3097 1650 2945 
Q 1397 2794 1197 2484 
Q 1050 2253 970 1956 
Q 891 1659 891 1344 
z
" transform="scale(0.015625)"/>
       <path id="DejaVuSans-Oblique-72" d="M 2853 2969 
Q 2766 3016 2653 3041 
Q 2541 3066 2413 3066 
Q 1953 3066 1609 2717 
Q 1266 2369 1153 1784 
L 800 0 
L 225 0 
L 909 3500 
L 1484 3500 
L 1375 2956 
Q 1603 3259 1920 3421 
Q 2238 3584 2597 3584 
Q 2691 3584 2781 3573 
Q 2872 3563 2963 3538 
L 2853 2969 
z
" transform="scale(0.015625)"/>
       <path id="DejaVuSans-Oblique-77" d="M 544 3500 
L 1113 3500 
L 1259 684 
L 2566 3500 
L 3231 3500 
L 3425 684 
L 4666 3500 
L 5241 3500 
L 3641 0 
L 2969 0 
L 2797 2900 
L 1459 0 
L 781 0 
L 544 3500 
z
" transform="scale(0.015625)"/>
       <path id="DejaVuSans-Oblique-61" d="M 3438 1997 
L 3047 0 
L 2472 0 
L 2578 531 
Q 2325 219 2001 64 
Q 1678 -91 1281 -91 
Q 834 -91 548 182 
Q 263 456 263 884 
Q 263 1497 752 1853 
Q 1241 2209 2100 2209 
L 2900 2209 
L 2931 2363 
Q 2938 2388 2941 2417 
Q 2944 2447 2944 2509 
Q 2944 2788 2717 2942 
Q 2491 3097 2081 3097 
Q 1800 3097 1504 3025 
Q 1209 2953 897 2809 
L 997 3341 
Q 1322 3463 1633 3523 
Q 1944 3584 2234 3584 
Q 2853 3584 3176 3315 
Q 3500 3047 3500 2534 
Q 3500 2431 3484 2292 
Q 3469 2153 3438 1997 
z
M 2816 1759 
L 2241 1759 
Q 1534 1759 1195 1570 
Q 856 1381 856 984 
Q 856 709 1029 553 
Q 1203 397 1509 397 
Q 1978 397 2328 733 
Q 2678 1069 2791 1631 
L 2816 1759 
z
" transform="scale(0.015625)"/>
       <path id="DejaVuSans-Oblique-64" d="M 2675 525 
Q 2444 222 2128 65 
Q 1813 -91 1428 -91 
Q 903 -91 598 267 
Q 294 625 294 1247 
Q 294 1766 478 2236 
Q 663 2706 1013 3078 
Q 1244 3325 1534 3454 
Q 1825 3584 2144 3584 
Q 2481 3584 2739 3421 
Q 2997 3259 3138 2956 
L 3513 4863 
L 4091 4863 
L 3144 0 
L 2566 0 
L 2675 525 
z
M 891 1350 
Q 891 897 1095 644 
Q 1300 391 1663 391 
Q 1931 391 2161 520 
Q 2391 650 2566 903 
Q 2750 1166 2856 1509 
Q 2963 1853 2963 2188 
Q 2963 2622 2758 2865 
Q 2553 3109 2194 3109 
Q 1922 3109 1687 2981 
Q 1453 2853 1288 2613 
Q 1106 2353 998 2009 
Q 891 1666 891 1350 
z
" transform="scale(0.015625)"/>
       <path id="DejaVuSans-4d" d="M 628 4666 
L 1569 4666 
L 2759 1491 
L 3956 4666 
L 4897 4666 
L 4897 0 
L 4281 0 
L 4281 4097 
L 3078 897 
L 2444 897 
L 1241 4097 
L 1241 0 
L 628 0 
L 628 4666 
z
" transform="scale(0.015625)"/>
       <path id="DejaVuSans-2d" d="M 313 2009 
L 1997 2009 
L 1997 1497 
L 313 1497 
L 313 2009 
z
" transform="scale(0.015625)"/>
       <path id="DejaVuSans-53" d="M 3425 4513 
L 3425 3897 
Q 3066 4069 2747 4153 
Q 2428 4238 2131 4238 
Q 1616 4238 1336 4038 
Q 1056 3838 1056 3469 
Q 1056 3159 1242 3001 
Q 1428 2844 1947 2747 
L 2328 2669 
Q 3034 2534 3370 2195 
Q 3706 1856 3706 1288 
Q 3706 609 3251 259 
Q 2797 -91 1919 -91 
Q 1588 -91 1214 -16 
Q 841 59 441 206 
L 441 856 
Q 825 641 1194 531 
Q 1563 422 1919 422 
Q 2459 422 2753 634 
Q 3047 847 3047 1241 
Q 3047 1584 2836 1778 
Q 2625 1972 2144 2069 
L 1759 2144 
Q 1053 2284 737 2584 
Q 422 2884 422 3419 
Q 422 4038 858 4394 
Q 1294 4750 2059 4750 
Q 2388 4750 2728 4690 
Q 3069 4631 3425 4513 
z
" transform="scale(0.015625)"/>
       <path id="DejaVuSans-6b" d="M 581 4863 
L 1159 4863 
L 1159 1991 
L 2875 3500 
L 3609 3500 
L 1753 1863 
L 3688 0 
L 2938 0 
L 1159 1709 
L 1159 0 
L 581 0 
L 581 4863 
z
" transform="scale(0.015625)"/>
      </defs>
      <use xlink:href="#DejaVuSans-Oblique-71" transform="translate(0 0.015625)"/>
      <use xlink:href="#DejaVuSans-Oblique-66" transform="translate(63.476562 -16.390625) scale(0.7)"/>
      <use xlink:href="#DejaVuSans-Oblique-6f" transform="translate(88.120117 -16.390625) scale(0.7)"/>
      <use xlink:href="#DejaVuSans-Oblique-72" transform="translate(130.947266 -16.390625) scale(0.7)"/>
      <use xlink:href="#DejaVuSans-Oblique-77" transform="translate(159.726562 -16.390625) scale(0.7)"/>
      <use xlink:href="#DejaVuSans-Oblique-61" transform="translate(216.977539 -16.390625) scale(0.7)"/>
      <use xlink:href="#DejaVuSans-Oblique-72" transform="translate(259.873047 -16.390625) scale(0.7)"/>
      <use xlink:href="#DejaVuSans-Oblique-64" transform="translate(288.652344 -16.390625) scale(0.7)"/>
      <use xlink:href="#DejaVuSans-28" transform="translate(335.820312 0.015625)"/>
      <use xlink:href="#DejaVuSans-Oblique-78" transform="translate(374.833984 0.015625)"/>
      <use xlink:href="#DejaVuSans-29" transform="translate(434.013672 0.015625)"/>
      <use xlink:href="#DejaVuSans-20" transform="translate(473.027344 0.015625)"/>
      <use xlink:href="#DejaVuSans-28" transform="translate(504.814453 0.015625)"/>
      <use xlink:href="#DejaVuSans-4d" transform="translate(543.828125 0.015625)"/>
      <use xlink:href="#DejaVuSans-65" transform="translate(630.107422 0.015625)"/>
      <use xlink:href="#DejaVuSans-61" transform="translate(691.630859 0.015625)"/>
      <use xlink:href="#DejaVuSans-6e" transform="translate(752.910156 0.015625)"/>
      <use xlink:href="#DejaVuSans-2d" transform="translate(816.289062 0.015625)"/>
      <use xlink:href="#DejaVuSans-53" transform="translate(852.373047 0.015625)"/>
      <use xlink:href="#DejaVuSans-65" transform="translate(915.849609 0.015625)"/>
      <use xlink:href="#DejaVuSans-65" transform="translate(977.373047 0.015625)"/>
      <use xlink:href="#DejaVuSans-6b" transform="translate(1038.896484 0.015625)"/>
      <use xlink:href="#DejaVuSans-69" transform="translate(1096.806641 0.015625)"/>
      <use xlink:href="#DejaVuSans-6e" transform="translate(1124.589844 0.015625)"/>
      <use xlink:href="#DejaVuSans-67" transform="translate(1187.96875 0.015625)"/>
      <use xlink:href="#DejaVuSans-20" transform="translate(1251.445312 0.015625)"/>
      <use xlink:href="#DejaVuSans-41" transform="translate(1283.232422 0.015625)"/>
      <use xlink:href="#DejaVuSans-70" transform="translate(1351.640625 0.015625)"/>
      <use xlink:href="#DejaVuSans-70" transform="translate(1415.117188 0.015625)"/>
      <use xlink:href="#DejaVuSans-72" transform="translate(1478.59375 0.015625)"/>
      <use xlink:href="#DejaVuSans-6f" transform="translate(1519.707031 0.015625)"/>
      <use xlink:href="#DejaVuSans-78" transform="translate(1580.888672 0.015625)"/>
      <use xlink:href="#DejaVuSans-69" transform="translate(1640.068359 0.015625)"/>
      <use xlink:href="#DejaVuSans-6d" transform="translate(1667.851562 0.015625)"/>
      <use xlink:href="#DejaVuSans-61" transform="translate(1765.263672 0.015625)"/>
      <use xlink:href="#DejaVuSans-74" transform="translate(1826.542969 0.015625)"/>
      <use xlink:href="#DejaVuSans-69" transform="translate(1865.751953 0.015625)"/>
      <use xlink:href="#DejaVuSans-6f" transform="translate(1893.535156 0.015625)"/>
      <use xlink:href="#DejaVuSans-6e" transform="translate(1954.716797 0.015625)"/>
      <use xlink:href="#DejaVuSans-29" transform="translate(2018.095703 0.015625)"/>
     </g>
    </g>
    <g id="line2d_34">
     <path d="M 365.34375 64.82 
L 375.34375 64.82 
L 385.34375 64.82 
" style="fill: none; stroke: #ff0000; stroke-width: 1.5; stroke-linecap: square"/>
    </g>
    <g id="text_20">
     <!-- $q_{reverse}(x)$ (Mode-Seeking Approximation) -->
     <g transform="translate(393.34375 68.32) scale(0.1 -0.1)">
      <defs>
       <path id="DejaVuSans-Oblique-65" d="M 3078 2063 
Q 3088 2113 3092 2166 
Q 3097 2219 3097 2272 
Q 3097 2653 2873 2875 
Q 2650 3097 2266 3097 
Q 1838 3097 1509 2826 
Q 1181 2556 1013 2059 
L 3078 2063 
z
M 3578 1613 
L 903 1613 
Q 884 1494 878 1425 
Q 872 1356 872 1306 
Q 872 872 1139 634 
Q 1406 397 1894 397 
Q 2269 397 2603 481 
Q 2938 566 3225 728 
L 3116 159 
Q 2806 34 2476 -28 
Q 2147 -91 1806 -91 
Q 1078 -91 686 257 
Q 294 606 294 1247 
Q 294 1794 489 2264 
Q 684 2734 1063 3103 
Q 1306 3334 1642 3459 
Q 1978 3584 2356 3584 
Q 2950 3584 3301 3228 
Q 3653 2872 3653 2272 
Q 3653 2128 3634 1964 
Q 3616 1800 3578 1613 
z
" transform="scale(0.015625)"/>
       <path id="DejaVuSans-Oblique-76" d="M 459 3500 
L 1069 3500 
L 1581 525 
L 3256 3500 
L 3866 3500 
L 1875 0 
L 1100 0 
L 459 3500 
z
" transform="scale(0.015625)"/>
       <path id="DejaVuSans-Oblique-73" d="M 3200 3397 
L 3091 2853 
Q 2863 2978 2609 3040 
Q 2356 3103 2088 3103 
Q 1634 3103 1373 2948 
Q 1113 2794 1113 2528 
Q 1113 2219 1719 2053 
Q 1766 2041 1788 2034 
L 1972 1978 
Q 2547 1819 2739 1644 
Q 2931 1469 2931 1166 
Q 2931 609 2489 259 
Q 2047 -91 1331 -91 
Q 1053 -91 747 -37 
Q 441 16 72 128 
L 184 722 
Q 500 559 806 475 
Q 1113 391 1394 391 
Q 1816 391 2080 572 
Q 2344 753 2344 1031 
Q 2344 1331 1650 1516 
L 1591 1531 
L 1394 1581 
Q 956 1697 753 1886 
Q 550 2075 550 2369 
Q 550 2928 970 3256 
Q 1391 3584 2113 3584 
Q 2397 3584 2667 3537 
Q 2938 3491 3200 3397 
z
" transform="scale(0.015625)"/>
      </defs>
      <use xlink:href="#DejaVuSans-Oblique-71" transform="translate(0 0.015625)"/>
      <use xlink:href="#DejaVuSans-Oblique-72" transform="translate(63.476562 -16.390625) scale(0.7)"/>
      <use xlink:href="#DejaVuSans-Oblique-65" transform="translate(92.255859 -16.390625) scale(0.7)"/>
      <use xlink:href="#DejaVuSans-Oblique-76" transform="translate(135.322266 -16.390625) scale(0.7)"/>
      <use xlink:href="#DejaVuSans-Oblique-65" transform="translate(176.748047 -16.390625) scale(0.7)"/>
      <use xlink:href="#DejaVuSans-Oblique-72" transform="translate(219.814453 -16.390625) scale(0.7)"/>
      <use xlink:href="#DejaVuSans-Oblique-73" transform="translate(248.59375 -16.390625) scale(0.7)"/>
      <use xlink:href="#DejaVuSans-Oblique-65" transform="translate(285.063477 -16.390625) scale(0.7)"/>
      <use xlink:href="#DejaVuSans-28" transform="translate(330.864258 0.015625)"/>
      <use xlink:href="#DejaVuSans-Oblique-78" transform="translate(369.87793 0.015625)"/>
      <use xlink:href="#DejaVuSans-29" transform="translate(429.057617 0.015625)"/>
      <use xlink:href="#DejaVuSans-20" transform="translate(468.071289 0.015625)"/>
      <use xlink:href="#DejaVuSans-28" transform="translate(499.858398 0.015625)"/>
      <use xlink:href="#DejaVuSans-4d" transform="translate(538.87207 0.015625)"/>
      <use xlink:href="#DejaVuSans-6f" transform="translate(625.151367 0.015625)"/>
      <use xlink:href="#DejaVuSans-64" transform="translate(686.333008 0.015625)"/>
      <use xlink:href="#DejaVuSans-65" transform="translate(749.80957 0.015625)"/>
      <use xlink:href="#DejaVuSans-2d" transform="translate(811.333008 0.015625)"/>
      <use xlink:href="#DejaVuSans-53" transform="translate(847.416992 0.015625)"/>
      <use xlink:href="#DejaVuSans-65" transform="translate(910.893555 0.015625)"/>
      <use xlink:href="#DejaVuSans-65" transform="translate(972.416992 0.015625)"/>
      <use xlink:href="#DejaVuSans-6b" transform="translate(1033.94043 0.015625)"/>
      <use xlink:href="#DejaVuSans-69" transform="translate(1091.850586 0.015625)"/>
      <use xlink:href="#DejaVuSans-6e" transform="translate(1119.633789 0.015625)"/>
      <use xlink:href="#DejaVuSans-67" transform="translate(1183.012695 0.015625)"/>
      <use xlink:href="#DejaVuSans-20" transform="translate(1246.489258 0.015625)"/>
      <use xlink:href="#DejaVuSans-41" transform="translate(1278.276367 0.015625)"/>
      <use xlink:href="#DejaVuSans-70" transform="translate(1346.68457 0.015625)"/>
      <use xlink:href="#DejaVuSans-70" transform="translate(1410.161133 0.015625)"/>
      <use xlink:href="#DejaVuSans-72" transform="translate(1473.637695 0.015625)"/>
      <use xlink:href="#DejaVuSans-6f" transform="translate(1514.750977 0.015625)"/>
      <use xlink:href="#DejaVuSans-78" transform="translate(1575.932617 0.015625)"/>
      <use xlink:href="#DejaVuSans-69" transform="translate(1635.112305 0.015625)"/>
      <use xlink:href="#DejaVuSans-6d" transform="translate(1662.895508 0.015625)"/>
      <use xlink:href="#DejaVuSans-61" transform="translate(1760.307617 0.015625)"/>
      <use xlink:href="#DejaVuSans-74" transform="translate(1821.586914 0.015625)"/>
      <use xlink:href="#DejaVuSans-69" transform="translate(1860.795898 0.015625)"/>
      <use xlink:href="#DejaVuSans-6f" transform="translate(1888.579102 0.015625)"/>
      <use xlink:href="#DejaVuSans-6e" transform="translate(1949.760742 0.015625)"/>
      <use xlink:href="#DejaVuSans-29" transform="translate(2013.139648 0.015625)"/>
     </g>
    </g>
   </g>
  </g>
 </g>
 <defs>
  <clipPath id="pe7803fe1db">
   <rect x="50.14375" y="22.32" width="558" height="332.64"/>
  </clipPath>
 </defs>
</svg>
